# xmcd
#
# Track frame offsets:
#	150
#	11213
#	26630
#	39692
#	52522
#	68149
#	81776
#	96821
#	108995
#	117679
#	132848
#	146944
#	156807
#	167110
#	177585
#	188524
#	198197
#	211310
#
# Disc length: 3010 seconds
#
# Revision: 0
# Processed by: cddbd v1.4PL0 Copyright (c) Steve Scherf et al.
# Submitted via: audiograbber 1.81.02
#
DISCID=fb0bc012
DTITLE=Billie Holiday - Sarah Vaughan - Ella Fitzgerald - The 3 Divas - d2
DYEAR=2002
DGENRE=Blues
TTITLE0=Sarah Vaughan - Ev'rytime We Say Goodbye
TTITLE1=Sarah Vaughan - Come Rain Or Come Shine
TTITLE2=Sarah Vaughan - Mean To Me
TTITLE3=Sarah Vaughan - Can't Get Out Of This Mood
TTITLE4=Sarah Vaughan - Goodnight My Love
TTITLE5=Sarah Vaughan - Ain't Misbehavin'
TTITLE6=Sarah Vaughan - The Nearness Of You
TTITLE7=Sarah Vaughan - Spring Will Be A Little Late This Year
TTITLE8=Sarah Vaughan - Ooh What'cha Doin' To Me
TTITLE9=Sarah Vaughan - It's All In The Mind
TTITLE10=Sarah Vaughan - East Of The Sun (West Of The Moon)
TTITLE11=Sarah Vaughan - Great Day
TTITLE12=Sarah Vaughan - You Stepped Out Of A Dream
TTITLE13=Sarah Vaughan - Have You Met Miss Jones
TTITLE14=Sarah Vaughan - Jump For Joy
TTITLE15=Sarah Vaughan - Perdido
TTITLE16=Sarah Vaughan - I Cried For You
TTITLE17=Sarah Vaughan - All Or Nothing At All
EXTD=
EXTT0=
EXTT1=
EXTT2=
EXTT3=
EXTT4=
EXTT5=
EXTT6=
EXTT7=
EXTT8=
EXTT9=
EXTT10=
EXTT11=
EXTT12=
EXTT13=
EXTT14=
EXTT15=
EXTT16=
EXTT17=
PLAYORDER=
